{"buffers":[{"uri":"data:application/octet-stream;base64,","byteLength":2701556}],"accessors":[{"bufferView":5,"componentType":5123,"count":211,"type":"SCALAR"},{"bufferView":6,"componentType":5126,"count":136,"type":"VEC3","max":[8.62578,3.8281097,67.0436],"min":[-8.62579,-21.5683,56.9968]},{"bufferView":7,"componentType":5126,"count":136,"type":"VEC3"},{"bufferView":8,"componentType":5126,"count":136,"type":"VEC2"},{"bufferView":9,"componentType":5123,"count":39,"type":"SCALAR"},{"bufferView":10,"componentType":5126,"count":136,"type":"VEC3","max":[8.62578,3.8281097,67.0436],"min":[-8.62579,-21.5683,56.9968]},{"bufferView":11,"componentType":5126,"count":136,"type":"VEC3"},{"bufferView":12,"componentType":5126,"count":136,"type":"VEC2"},{"bufferView":18,"componentType":5123,"count":117,"type":"SCALAR"},{"bufferView":19,"componentType":5126,"count":44,"type":"VEC3","max":[4.70757,-15.512101,63.6153],"min":[-4.69796,-17.4782,60.272697]},{"bufferView":20,"componentType":5126,"count":44,"type":"VEC3"},{"bufferView":21,"componentType":5126,"count":44,"type":"VEC2"},{"bufferView":27,"componentType":5123,"count":1424,"type":"SCALAR"},{"bufferView":28,"componentType":5126,"count":465,"type":"VEC3","max":[7.4240203,-0.086599894,66.7728],"min":[-7.42403,-20.8893,45.6967]},{"bufferView":29,"componentType":5126,"count":465,"type":"VEC3"},{"bufferView":30,"componentType":5126,"count":465,"type":"VEC2"},{"bufferView":36,"componentType":5123,"count":375,"type":"SCALAR"},{"bufferView":37,"componentType":5126,"count":109,"type":"VEC3","max":[8.1946,4.2441297,76.4001],"min":[-8.194591,-19.6451,52.5622]},{"bufferView":38,"componentType":5126,"count":109,"type":"VEC3"},{"bufferView":39,"componentType":5126,"count":109,"type":"VEC2"},{"bufferView":44,"componentType":5123,"count":103,"type":"SCALAR"},{"bufferView":45,"componentType":5126,"count":139,"type":"VEC3","max":[8.79504,4.4894996,76.5073],"min":[-8.79504,-21.6377,45.672302]},{"bufferView":46,"componentType":5126,"count":139,"type":"VEC3"},{"bufferView":47,"componentType":5126,"count":139,"type":"VEC2"},{"bufferView":48,"componentType":5123,"count":87,"type":"SCALAR"},{"bufferView":49,"componentType":5126,"count":139,"type":"VEC3","max":[8.79504,4.4894996,76.5073],"min":[-8.79504,-21.6377,45.672302]},{"bufferView":50,"componentType":5126,"count":139,"type":"VEC3"},{"bufferView":51,"componentType":5126,"count":139,"type":"VEC2"},{"bufferView":52,"componentType":5123,"count":167,"type":"SCALAR"},{"bufferView":53,"componentType":5126,"count":139,"type":"VEC3","max":[8.79504,4.4894996,76.5073],"min":[-8.79504,-21.6377,45.672302]},{"bufferView":54,"componentType":5126,"count":139,"type":"VEC3"},{"bufferView":55,"componentType":5126,"count":139,"type":"VEC2"},{"bufferView":60,"componentType":5123,"count":79,"type":"SCALAR"},{"bufferView":61,"componentType":5126,"count":80,"type":"VEC3","max":[8.79504,4.4894996,76.5073],"min":[-8.79504,-21.51,45.672302]},{"bufferView":62,"componentType":5126,"count":80,"type":"VEC3"},{"bufferView":63,"componentType":5126,"count":80,"type":"VEC2"},{"bufferView":64,"componentType":5123,"count":51,"type":"SCALAR"},{"bufferView":65,"componentType":5126,"count":80,"type":"VEC3","max":[8.79504,4.4894996,76.5073],"min":[-8.79504,-21.51,45.672302]},{"bufferView":66,"componentType":5126,"count":80,"type":"VEC3"},{"bufferView":67,"componentType":5126,"count":80,"type":"VEC2"},{"bufferView":68,"componentType":5123,"count":80,"type":"SCALAR"},{"bufferView":69,"componentType":5126,"count":80,"type":"VEC3","max":[8.79504,4.4894996,76.5073],"min":[-8.79504,-21.51,45.672302]},{"bufferView":70,"componentType":5126,"count":80,"type":"VEC3"},{"bufferView":71,"componentType":5126,"count":80,"type":"VEC2"}],"asset":{"generator":"qmuntal/gltf","version":"2.0"},"bufferViews":[{"buffer":0,"byteLength":63760},{"buffer":0,"byteOffset":63760,"byteLength":63760},{"buffer":0,"byteOffset":127520,"byteLength":59159},{"buffer":0,"byteOffset":186679,"byteLength":67080},{"buffer":0,"byteOffset":253759,"byteLength":208589},{"buffer":0,"byteOffset":462348,"byteLength":422,"target":34963},{"buffer":0,"byteOffset":462772,"byteLength":1632,"target":34962},{"buffer":0,"byteOffset":464404,"byteLength":1632,"target":34962},{"buffer":0,"byteOffset":466036,"byteLength":1088,"target":34962},{"buffer":0,"byteOffset":467124,"byteLength":78,"target":34963},{"buffer":0,"byteOffset":467204,"byteLength":1632,"target":34962},{"buffer":0,"byteOffset":468836,"byteLength":1632,"target":34962},{"buffer":0,"byteOffset":470468,"byteLength":1088,"target":34962},{"buffer":0,"byteOffset":471556,"byteLength":63760},{"buffer":0,"byteOffset":535316,"byteLength":63760},{"buffer":0,"byteOffset":599076,"byteLength":59159},{"buffer":0,"byteOffset":658235,"byteLength":67080},{"buffer":0,"byteOffset":725315,"byteLength":208589},{"buffer":0,"byteOffset":933904,"byteLength":234,"target":34963},{"buffer":0,"byteOffset":934140,"byteLength":528,"target":34962},{"buffer":0,"byteOffset":934668,"byteLength":528,"target":34962},{"buffer":0,"byteOffset":935196,"byteLength":352,"target":34962},{"buffer":0,"byteOffset":935548,"byteLength":63760},{"buffer":0,"byteOffset":999308,"byteLength":63760},{"buffer":0,"byteOffset":1063068,"byteLength":59159},{"buffer":0,"byteOffset":1122227,"byteLength":67080},{"buffer":0,"byteOffset":1189307,"byteLength":208589},{"buffer":0,"byteOffset":1397896,"byteLength":2848,"target":34963},{"buffer":0,"byteOffset":1400744,"byteLength":5580,"target":34962},{"buffer":0,"byteOffset":1406324,"byteLength":5580,"target":34962},{"buffer":0,"byteOffset":1411904,"byteLength":3720,"target":34962},{"buffer":0,"byteOffset":1415624,"byteLength":63760},{"buffer":0,"byteOffset":1479384,"byteLength":63760},{"buffer":0,"byteOffset":1543144,"byteLength":59159},{"buffer":0,"byteOffset":1602303,"byteLength":67080},{"buffer":0,"byteOffset":1669383,"byteLength":208589},{"buffer":0,"byteOffset":1877972,"byteLength":750,"target":34963},{"buffer":0,"byteOffset":1878724,"byteLength":1308,"target":34962},{"buffer":0,"byteOffset":1880032,"byteLength":1308,"target":34962},{"buffer":0,"byteOffset":1881340,"byteLength":872,"target":34962},{"buffer":0,"byteOffset":1882212,"byteLength":63760},{"buffer":0,"byteOffset":1945972,"byteLength":67080},{"buffer":0,"byteOffset":2013052,"byteLength":59159},{"buffer":0,"byteOffset":2072211,"byteLength":208589},{"buffer":0,"byteOffset":2280800,"byteLength":206,"target":34963},{"buffer":0,"byteOffset":2281008,"byteLength":1668,"target":34962},{"buffer":0,"byteOffset":2282676,"byteLength":1668,"target":34962},{"buffer":0,"byteOffset":2284344,"byteLength":1112,"target":34962},{"buffer":0,"byteOffset":2285456,"byteLength":174,"target":34963},{"buffer":0,"byteOffset":2285632,"byteLength":1668,"target":34962},{"buffer":0,"byteOffset":2287300,"byteLength":1668,"target":34962},{"buffer":0,"byteOffset":2288968,"byteLength":1112,"target":34962},{"buffer":0,"byteOffset":2290080,"byteLength":334,"target":34963},{"buffer":0,"byteOffset":2290416,"byteLength":1668,"target":34962},{"buffer":0,"byteOffset":2292084,"byteLength":1668,"target":34962},{"buffer":0,"byteOffset":2293752,"byteLength":1112,"target":34962},{"buffer":0,"byteOffset":2294864,"byteLength":63760},{"buffer":0,"byteOffset":2358624,"byteLength":67080},{"buffer":0,"byteOffset":2425704,"byteLength":59159},{"buffer":0,"byteOffset":2484863,"byteLength":208589},{"buffer":0,"byteOffset":2693452,"byteLength":158,"target":34963},{"buffer":0,"byteOffset":2693612,"byteLength":960,"target":34962},{"buffer":0,"byteOffset":2694572,"byteLength":960,"target":34962},{"buffer":0,"byteOffset":2695532,"byteLength":640,"target":34962},{"buffer":0,"byteOffset":2696172,"byteLength":102,"target":34963},{"buffer":0,"byteOffset":2696276,"byteLength":960,"target":34962},{"buffer":0,"byteOffset":2697236,"byteLength":960,"target":34962},{"buffer":0,"byteOffset":2698196,"byteLength":640,"target":34962},{"buffer":0,"byteOffset":2698836,"byteLength":160,"target":34963},{"buffer":0,"byteOffset":2698996,"byteLength":960,"target":34962},{"buffer":0,"byteOffset":2699956,"byteLength":960,"target":34962},{"buffer":0,"byteOffset":2700916,"byteLength":640,"target":34962}],"images":[{"name":"boot","mimeType":"image/png","bufferView":0},{"name":"boot","mimeType":"image/png","bufferView":1},{"name":"head","mimeType":"image/png","bufferView":2},{"name":"helm","mimeType":"image/png","bufferView":3},{"name":"suit","mimeType":"image/png","bufferView":4},{"name":"boot","mimeType":"image/png","bufferView":13},{"name":"boot","mimeType":"image/png","bufferView":14},{"name":"head","mimeType":"image/png","bufferView":15},{"name":"helm","mimeType":"image/png","bufferView":16},{"name":"suit","mimeType":"image/png","bufferView":17},{"name":"boot","mimeType":"image/png","bufferView":22},{"name":"boot","mimeType":"image/png","bufferView":23},{"name":"head","mimeType":"image/png","bufferView":24},{"name":"helm","mimeType":"image/png","bufferView":25},{"name":"suit","mimeType":"image/png","bufferView":26},{"name":"boot","mimeType":"image/png","bufferView":31},{"name":"boot","mimeType":"image/png","bufferView":32},{"name":"head","mimeType":"image/png","bufferView":33},{"name":"helm","mimeType":"image/png","bufferView":34},{"name":"suit","mimeType":"image/png","bufferView":35},{"name":"boot","mimeType":"image/png","bufferView":40},{"name":"helm","mimeType":"image/png","bufferView":41},{"name":"head","mimeType":"image/png","bufferView":42},{"name":"suit","mimeType":"image/png","bufferView":43},{"name":"boot","mimeType":"image/png","bufferView":56},{"name":"helm","mimeType":"image/png","bufferView":57},{"name":"head","mimeType":"image/png","bufferView":58},{"name":"suit","mimeType":"image/png","bufferView":59}],"materials":[{"name":"SussyMat","pbrMetallicRoughness":{"baseColorTexture":{"index":0},"metallicFactor":0}},{"name":"SussyMat","pbrMetallicRoughness":{"baseColorTexture":{"index":1},"metallicFactor":0}},{"name":"SussyMat","pbrMetallicRoughness":{"baseColorTexture":{"index":2},"metallicFactor":0}},{"name":"SussyMat","pbrMetallicRoughness":{"baseColorTexture":{"index":3},"metallicFactor":0}},{"name":"SussyMat","pbrMetallicRoughness":{"baseColorTexture":{"index":4},"metallicFactor":0}},{"name":"SussyMat","pbrMetallicRoughness":{"baseColorTexture":{"index":5},"metallicFactor":0}},{"name":"SussyMat","pbrMetallicRoughness":{"baseColorTexture":{"index":6},"metallicFactor":0}},{"name":"SussyMat","pbrMetallicRoughness":{"baseColorTexture":{"index":7},"metallicFactor":0}},{"name":"SussyMat","pbrMetallicRoughness":{"baseColorTexture":{"index":8},"metallicFactor":0}},{"name":"SussyMat","pbrMetallicRoughness":{"baseColorTexture":{"index":9},"metallicFactor":0}},{"name":"SussyMat","pbrMetallicRoughness":{"baseColorTexture":{"index":10},"metallicFactor":0}},{"name":"SussyMat","pbrMetallicRoughness":{"baseColorTexture":{"index":11},"metallicFactor":0}},{"name":"SussyMat","pbrMetallicRoughness":{"baseColorTexture":{"index":12},"metallicFactor":0}},{"name":"SussyMat","pbrMetallicRoughness":{"baseColorTexture":{"index":13},"metallicFactor":0}},{"name":"SussyMat","pbrMetallicRoughness":{"baseColorTexture":{"index":14},"metallicFactor":0}},{"name":"SussyMat","pbrMetallicRoughness":{"baseColorTexture":{"index":15},"metallicFactor":0}},{"name":"SussyMat","pbrMetallicRoughness":{"baseColorTexture":{"index":16},"metallicFactor":0}},{"name":"SussyMat","pbrMetallicRoughness":{"baseColorTexture":{"index":17},"metallicFactor":0}},{"name":"SussyMat","pbrMetallicRoughness":{"baseColorTexture":{"index":18},"metallicFactor":0}},{"name":"SussyMat","pbrMetallicRoughness":{"baseColorTexture":{"index":19},"metallicFactor":0}},{"name":"SussyMat","pbrMetallicRoughness":{"baseColorTexture":{"index":20},"metallicFactor":0}},{"name":"SussyMat","pbrMetallicRoughness":{"baseColorTexture":{"index":21},"metallicFactor":0}},{"name":"SussyMat","pbrMetallicRoughness":{"baseColorTexture":{"index":22},"metallicFactor":0}},{"name":"SussyMat","pbrMetallicRoughness":{"baseColorTexture":{"index":23},"metallicFactor":0}},{"name":"SussyMat","pbrMetallicRoughness":{"baseColorTexture":{"index":24},"metallicFactor":0}},{"name":"SussyMat","pbrMetallicRoughness":{"baseColorTexture":{"index":25},"metallicFactor":0}},{"name":"SussyMat","pbrMetallicRoughness":{"baseColorTexture":{"index":26},"metallicFactor":0}},{"name":"SussyMat","pbrMetallicRoughness":{"baseColorTexture":{"index":27},"metallicFactor":0}}],"meshes":[{"name":"Goggles23000\u0000\u0000\u0000\u0000","primitives":[{"attributes":{"NORMAL":2,"POSITION":1,"TEXCOORD_0":3},"indices":0,"material":0,"mode":5},{"attributes":{"NORMAL":6,"POSITION":5,"TEXCOORD_0":7},"indices":4,"material":1,"mode":5}]},{"name":"Eyes3000\u0000\u0000\u0000\u0000\u0000\u0000\u0000\u0000","primitives":[{"attributes":{"NORMAL":10,"POSITION":9,"TEXCOORD_0":11},"indices":8,"material":2,"mode":5}]},{"name":"Face3000\u0000\u0000\u0000\u0000\u0000\u0000\u0000\u0000","primitives":[{"attributes":{"NORMAL":14,"POSITION":13,"TEXCOORD_0":15},"indices":12,"material":2,"mode":5}]},{"name":"Head3000\u0000\u0000\u0000\u0000\u0000\u0000\u0000\u0000","primitives":[{"attributes":{"NORMAL":18,"POSITION":17,"TEXCOORD_0":19},"indices":16,"material":3,"mode":5}]},{"name":"Head1500\u0000\u0000\u0000\u0000\u0000\u0000\u0000\u0000","primitives":[{"attributes":{"NORMAL":22,"POSITION":21,"TEXCOORD_0":23},"indices":20,"material":0,"mode":5},{"attributes":{"NORMAL":26,"POSITION":25,"TEXCOORD_0":27},"indices":24,"material":1,"mode":5},{"attributes":{"NORMAL":30,"POSITION":29,"TEXCOORD_0":31},"indices":28,"material":2,"mode":5}]},{"name":"Head750\u0000\u0000\u0000\u0000\u0000\u0000\u0000\u0000\u0000","primitives":[{"attributes":{"NORMAL":34,"POSITION":33,"TEXCOORD_0":35},"indices":32,"material":0,"mode":5},{"attributes":{"NORMAL":38,"POSITION":37,"TEXCOORD_0":39},"indices":36,"material":1,"mode":5},{"attributes":{"NORMAL":42,"POSITION":41,"TEXCOORD_0":43},"indices":40,"material":2,"mode":5}]}],"nodes":[{"name":"Root0","mesh":0},{"name":"Root1","mesh":1},{"name":"Root2","mesh":2},{"name":"Root3","mesh":3},{"name":"Root4","mesh":4},{"name":"Root5","mesh":5}],"scene":0,"scenes":[{"name":"Root Scene","nodes":[0]}],"textures":[{"source":0},{"source":1},{"source":2},{"source":3},{"source":4},{"source":5},{"source":6},{"source":7},{"source":8},{"source":9},{"source":10},{"source":11},{"source":12},{"source":13},{"source":14},{"source":15},{"source":16},{"source":17},{"source":18},{"source":19},{"source":20},{"source":21},{"source":22},{"source":23},{"source":24},{"source":25},{"source":26},{"source":27}]}