{"buffers":[{"uri":"data:application/octet-stream;base64,","byteLength":203320}],"accessors":[{"bufferView":0,"componentType":5123,"count":213,"type":"SCALAR"},{"bufferView":1,"componentType":5126,"count":1262,"type":"VEC3","max":[77.5323,17.8223,56.545868],"min":[-77.5323,-28.8855,-99.6029]},{"bufferView":2,"componentType":5126,"count":1262,"type":"VEC3"},{"bufferView":3,"componentType":5123,"count":443,"type":"SCALAR"},{"bufferView":4,"componentType":5126,"count":1262,"type":"VEC3","max":[77.5323,17.8223,56.545868],"min":[-77.5323,-28.8855,-99.6029]},{"bufferView":5,"componentType":5126,"count":1262,"type":"VEC3"},{"bufferView":6,"componentType":5123,"count":3002,"type":"SCALAR"},{"bufferView":7,"componentType":5126,"count":1262,"type":"VEC3","max":[77.5323,17.8223,56.545868],"min":[-77.5323,-28.8855,-99.6029]},{"bufferView":8,"componentType":5126,"count":1262,"type":"VEC3"},{"bufferView":9,"componentType":5123,"count":134,"type":"SCALAR"},{"bufferView":10,"componentType":5126,"count":863,"type":"VEC3","max":[77.5323,17.8223,56.545868],"min":[-77.5323,-28.826101,-100.69701]},{"bufferView":11,"componentType":5126,"count":863,"type":"VEC3"},{"bufferView":12,"componentType":5123,"count":244,"type":"SCALAR"},{"bufferView":13,"componentType":5126,"count":863,"type":"VEC3","max":[77.5323,17.8223,56.545868],"min":[-77.5323,-28.826101,-100.69701]},{"bufferView":14,"componentType":5126,"count":863,"type":"VEC3"},{"bufferView":15,"componentType":5123,"count":1997,"type":"SCALAR"},{"bufferView":16,"componentType":5126,"count":863,"type":"VEC3","max":[77.5323,17.8223,56.545868],"min":[-77.5323,-28.826101,-100.69701]},{"bufferView":17,"componentType":5126,"count":863,"type":"VEC3"},{"bufferView":18,"componentType":5123,"count":94,"type":"SCALAR"},{"bufferView":19,"componentType":5126,"count":495,"type":"VEC3","max":[77.5323,17.989,56.545868],"min":[-77.5323,-28.8405,-100.69701]},{"bufferView":20,"componentType":5126,"count":495,"type":"VEC3"},{"bufferView":21,"componentType":5123,"count":208,"type":"SCALAR"},{"bufferView":22,"componentType":5126,"count":495,"type":"VEC3","max":[77.5323,17.989,56.545868],"min":[-77.5323,-28.8405,-100.69701]},{"bufferView":23,"componentType":5126,"count":495,"type":"VEC3"},{"bufferView":24,"componentType":5123,"count":1002,"type":"SCALAR"},{"bufferView":25,"componentType":5126,"count":495,"type":"VEC3","max":[77.5323,17.989,56.545868],"min":[-77.5323,-28.8405,-100.69701]},{"bufferView":26,"componentType":5126,"count":495,"type":"VEC3"}],"asset":{"generator":"qmuntal/gltf","version":"2.0"},"bufferViews":[{"buffer":0,"byteLength":426,"target":34963},{"buffer":0,"byteOffset":428,"byteLength":15144,"target":34962},{"buffer":0,"byteOffset":15572,"byteLength":15144,"target":34962},{"buffer":0,"byteOffset":30716,"byteLength":886,"target":34963},{"buffer":0,"byteOffset":31604,"byteLength":15144,"target":34962},{"buffer":0,"byteOffset":46748,"byteLength":15144,"target":34962},{"buffer":0,"byteOffset":61892,"byteLength":6004,"target":34963},{"buffer":0,"byteOffset":67896,"byteLength":15144,"target":34962},{"buffer":0,"byteOffset":83040,"byteLength":15144,"target":34962},{"buffer":0,"byteOffset":98184,"byteLength":268,"target":34963},{"buffer":0,"byteOffset":98452,"byteLength":10356,"target":34962},{"buffer":0,"byteOffset":108808,"byteLength":10356,"target":34962},{"buffer":0,"byteOffset":119164,"byteLength":488,"target":34963},{"buffer":0,"byteOffset":119652,"byteLength":10356,"target":34962},{"buffer":0,"byteOffset":130008,"byteLength":10356,"target":34962},{"buffer":0,"byteOffset":140364,"byteLength":3994,"target":34963},{"buffer":0,"byteOffset":144360,"byteLength":10356,"target":34962},{"buffer":0,"byteOffset":154716,"byteLength":10356,"target":34962},{"buffer":0,"byteOffset":165072,"byteLength":188,"target":34963},{"buffer":0,"byteOffset":165260,"byteLength":5940,"target":34962},{"buffer":0,"byteOffset":171200,"byteLength":5940,"target":34962},{"buffer":0,"byteOffset":177140,"byteLength":416,"target":34963},{"buffer":0,"byteOffset":177556,"byteLength":5940,"target":34962},{"buffer":0,"byteOffset":183496,"byteLength":5940,"target":34962},{"buffer":0,"byteOffset":189436,"byteLength":2004,"target":34963},{"buffer":0,"byteOffset":191440,"byteLength":5940,"target":34962},{"buffer":0,"byteOffset":197380,"byteLength":5940,"target":34962}],"meshes":[{"name":"Body3000\u0000\u0000\u0000\u0000\u0000\u0000\u0000\u0000","primitives":[{"attributes":{"COLOR_0":2,"POSITION":1},"indices":0,"mode":5},{"attributes":{"COLOR_0":5,"POSITION":4},"indices":3,"mode":5},{"attributes":{"COLOR_0":8,"POSITION":7},"indices":6,"mode":5}]},{"name":"Body1500\u0000\u0000\u0000\u0000\u0000\u0000\u0000\u0000","primitives":[{"attributes":{"COLOR_0":11,"POSITION":10},"indices":9,"mode":5},{"attributes":{"COLOR_0":14,"POSITION":13},"indices":12,"mode":5},{"attributes":{"COLOR_0":17,"POSITION":16},"indices":15,"mode":5}]},{"name":"Body750\u0000\u0000\u0000\u0000\u0000\u0000\u0000\u0000\u0000","primitives":[{"attributes":{"COLOR_0":20,"POSITION":19},"indices":18,"mode":5},{"attributes":{"COLOR_0":23,"POSITION":22},"indices":21,"mode":5},{"attributes":{"COLOR_0":26,"POSITION":25},"indices":24,"mode":5}]},{"name":"BodyShdw750\u0000\u0000\u0000\u0000\u0000","primitives":null}],"nodes":[{"name":"Root0","mesh":0},{"name":"Root1","mesh":1},{"name":"Root2","mesh":2},{"name":"Root3","mesh":3}],"scene":0,"scenes":[{"name":"Root Scene","nodes":[0]}]}