{"buffers":[{"uri":"data:application/octet-stream;base64,","byteLength":1582081}],"accessors":[{"bufferView":1,"componentType":5123,"count":172,"type":"SCALAR"},{"bufferView":2,"componentType":5126,"count":66,"type":"VEC3","max":[7.1592703,-6.06293,61.5238],"min":[-7.13917,-16.4092,58.1827]},{"bufferView":3,"componentType":5126,"count":66,"type":"VEC3"},{"bufferView":4,"componentType":5126,"count":66,"type":"VEC2"},{"bufferView":6,"componentType":5123,"count":116,"type":"SCALAR"},{"bufferView":7,"componentType":5126,"count":44,"type":"VEC3","max":[4.72121,-12.9761,61.5211],"min":[-4.72121,-14.7751,58.4895]},{"bufferView":8,"componentType":5126,"count":44,"type":"VEC3"},{"bufferView":9,"componentType":5126,"count":44,"type":"VEC2"},{"bufferView":11,"componentType":5123,"count":1573,"type":"SCALAR"},{"bufferView":12,"componentType":5126,"count":532,"type":"VEC3","max":[8.286449,-0.1158237,66.7395],"min":[-8.26632,-18.1785,47.733597]},{"bufferView":13,"componentType":5126,"count":532,"type":"VEC3"},{"bufferView":14,"componentType":5126,"count":532,"type":"VEC2"},{"bufferView":16,"componentType":5123,"count":736,"type":"SCALAR"},{"bufferView":17,"componentType":5126,"count":239,"type":"VEC3","max":[9.18614,3.4111605,73.2028],"min":[-9.51803,-17.1136,49.855698]},{"bufferView":18,"componentType":5126,"count":239,"type":"VEC3"},{"bufferView":19,"componentType":5126,"count":239,"type":"VEC2"},{"bufferView":21,"componentType":5123,"count":450,"type":"SCALAR"},{"bufferView":22,"componentType":5126,"count":364,"type":"VEC3","max":[9.18614,3.4111598,73.1357],"min":[-9.51803,-18.048101,47.733597]},{"bufferView":23,"componentType":5126,"count":364,"type":"VEC3"},{"bufferView":24,"componentType":5126,"count":364,"type":"VEC2"},{"bufferView":25,"componentType":5123,"count":72,"type":"SCALAR"},{"bufferView":26,"componentType":5126,"count":364,"type":"VEC3","max":[9.18614,3.4111598,73.1357],"min":[-9.51803,-18.048101,47.733597]},{"bufferView":27,"componentType":5126,"count":364,"type":"VEC3"},{"bufferView":28,"componentType":5126,"count":364,"type":"VEC2"},{"bufferView":29,"componentType":5123,"count":529,"type":"SCALAR"},{"bufferView":30,"componentType":5126,"count":364,"type":"VEC3","max":[9.18614,3.4111598,73.1357],"min":[-9.51803,-18.048101,47.733597]},{"bufferView":31,"componentType":5126,"count":364,"type":"VEC3"},{"bufferView":32,"componentType":5126,"count":364,"type":"VEC2"},{"bufferView":34,"componentType":5123,"count":186,"type":"SCALAR"},{"bufferView":35,"componentType":5126,"count":169,"type":"VEC3","max":[9.14862,3.8590598,72.7461],"min":[-9.22291,-17.780401,47.733597]},{"bufferView":36,"componentType":5126,"count":169,"type":"VEC3"},{"bufferView":37,"componentType":5126,"count":169,"type":"VEC2"},{"bufferView":38,"componentType":5123,"count":38,"type":"SCALAR"},{"bufferView":39,"componentType":5126,"count":169,"type":"VEC3","max":[9.14862,3.8590598,72.7461],"min":[-9.22291,-17.780401,47.733597]},{"bufferView":40,"componentType":5126,"count":169,"type":"VEC3"},{"bufferView":41,"componentType":5126,"count":169,"type":"VEC2"},{"bufferView":42,"componentType":5123,"count":223,"type":"SCALAR"},{"bufferView":43,"componentType":5126,"count":169,"type":"VEC3","max":[9.14862,3.8590598,72.7461],"min":[-9.22291,-17.780401,47.733597]},{"bufferView":44,"componentType":5126,"count":169,"type":"VEC3"},{"bufferView":45,"componentType":5126,"count":169,"type":"VEC2"}],"asset":{"generator":"qmuntal/gltf","version":"2.0"},"bufferViews":[{"buffer":0,"byteLength":213501},{"buffer":0,"byteOffset":213504,"byteLength":344,"target":34963},{"buffer":0,"byteOffset":213848,"byteLength":792,"target":34962},{"buffer":0,"byteOffset":214640,"byteLength":792,"target":34962},{"buffer":0,"byteOffset":215432,"byteLength":528,"target":34962},{"buffer":0,"byteOffset":215960,"byteLength":213501},{"buffer":0,"byteOffset":429464,"byteLength":232,"target":34963},{"buffer":0,"byteOffset":429696,"byteLength":528,"target":34962},{"buffer":0,"byteOffset":430224,"byteLength":528,"target":34962},{"buffer":0,"byteOffset":430752,"byteLength":352,"target":34962},{"buffer":0,"byteOffset":431104,"byteLength":213501},{"buffer":0,"byteOffset":644608,"byteLength":3146,"target":34963},{"buffer":0,"byteOffset":647756,"byteLength":6384,"target":34962},{"buffer":0,"byteOffset":654140,"byteLength":6384,"target":34962},{"buffer":0,"byteOffset":660524,"byteLength":4256,"target":34962},{"buffer":0,"byteOffset":664780,"byteLength":213501},{"buffer":0,"byteOffset":878284,"byteLength":1472,"target":34963},{"buffer":0,"byteOffset":879756,"byteLength":2868,"target":34962},{"buffer":0,"byteOffset":882624,"byteLength":2868,"target":34962},{"buffer":0,"byteOffset":885492,"byteLength":1912,"target":34962},{"buffer":0,"byteOffset":887404,"byteLength":213501},{"buffer":0,"byteOffset":1100908,"byteLength":900,"target":34963},{"buffer":0,"byteOffset":1101808,"byteLength":4368,"target":34962},{"buffer":0,"byteOffset":1106176,"byteLength":4368,"target":34962},{"buffer":0,"byteOffset":1110544,"byteLength":2912,"target":34962},{"buffer":0,"byteOffset":1113456,"byteLength":144,"target":34963},{"buffer":0,"byteOffset":1113600,"byteLength":4368,"target":34962},{"buffer":0,"byteOffset":1117968,"byteLength":4368,"target":34962},{"buffer":0,"byteOffset":1122336,"byteLength":2912,"target":34962},{"buffer":0,"byteOffset":1125248,"byteLength":1058,"target":34963},{"buffer":0,"byteOffset":1126308,"byteLength":4368,"target":34962},{"buffer":0,"byteOffset":1130676,"byteLength":4368,"target":34962},{"buffer":0,"byteOffset":1135044,"byteLength":2912,"target":34962},{"buffer":0,"byteOffset":1137956,"byteLength":213501},{"buffer":0,"byteOffset":1351460,"byteLength":372,"target":34963},{"buffer":0,"byteOffset":1351832,"byteLength":2028,"target":34962},{"buffer":0,"byteOffset":1353860,"byteLength":2028,"target":34962},{"buffer":0,"byteOffset":1355888,"byteLength":1352,"target":34962},{"buffer":0,"byteOffset":1357240,"byteLength":76,"target":34963},{"buffer":0,"byteOffset":1357316,"byteLength":2028,"target":34962},{"buffer":0,"byteOffset":1359344,"byteLength":2028,"target":34962},{"buffer":0,"byteOffset":1361372,"byteLength":1352,"target":34962},{"buffer":0,"byteOffset":1362724,"byteLength":446,"target":34963},{"buffer":0,"byteOffset":1363172,"byteLength":2028,"target":34962},{"buffer":0,"byteOffset":1365200,"byteLength":2028,"target":34962},{"buffer":0,"byteOffset":1367228,"byteLength":1352,"target":34962},{"buffer":0,"byteOffset":1368580,"byteLength":213501}],"images":[{"name":"suit","mimeType":"image/png","bufferView":0},{"name":"suit","mimeType":"image/png","bufferView":5},{"name":"suit","mimeType":"image/png","bufferView":10},{"name":"suit","mimeType":"image/png","bufferView":15},{"name":"suit","mimeType":"image/png","bufferView":20},{"name":"suit","mimeType":"image/png","bufferView":33},{"name":"suit","mimeType":"image/png","bufferView":46}],"materials":[{"name":"Material_SuS","pbrMetallicRoughness":{"baseColorTexture":{"index":0},"metallicFactor":0}},{"name":"Material_SuS","pbrMetallicRoughness":{"baseColorTexture":{"index":0},"metallicFactor":0}},{"name":"Material_SuS","pbrMetallicRoughness":{"baseColorTexture":{"index":0},"metallicFactor":0}},{"name":"Material_SuS","pbrMetallicRoughness":{"baseColorTexture":{"index":0},"metallicFactor":0}},{"name":"Material_SuS","pbrMetallicRoughness":{"baseColorTexture":{"index":0},"metallicFactor":0}},{"name":"Material_SuS","pbrMetallicRoughness":{"baseColorTexture":{"index":0},"metallicFactor":0}},{"name":"Material_SuS","pbrMetallicRoughness":{"baseColorTexture":{"index":0},"metallicFactor":0}}],"meshes":[{"name":"Goggles3000\u0000\u0000\u0000\u0000\u0000","primitives":[{"attributes":{"NORMAL":2,"POSITION":1,"TEXCOORD_0":3},"indices":0,"material":0,"mode":5}]},{"name":"Eyes3000\u0000\u0000\u0000\u0000\u0000\u0000\u0000\u0000","primitives":[{"attributes":{"NORMAL":6,"POSITION":5,"TEXCOORD_0":7},"indices":4,"material":0,"mode":5}]},{"name":"Face3000\u0000\u0000\u0000\u0000\u0000\u0000\u0000\u0000","primitives":[{"attributes":{"NORMAL":10,"POSITION":9,"TEXCOORD_0":11},"indices":8,"material":0,"mode":5}]},{"name":"Head3000\u0000\u0000\u0000\u0000\u0000\u0000\u0000\u0000","primitives":[{"attributes":{"NORMAL":14,"POSITION":13,"TEXCOORD_0":15},"indices":12,"material":0,"mode":5}]},{"name":"Head1500\u0000\u0000\u0000\u0000\u0000\u0000\u0000\u0000","primitives":[{"attributes":{"NORMAL":18,"POSITION":17,"TEXCOORD_0":19},"indices":16,"material":0,"mode":5},{"attributes":{"NORMAL":22,"POSITION":21,"TEXCOORD_0":23},"indices":20,"material":0,"mode":5},{"attributes":{"NORMAL":26,"POSITION":25,"TEXCOORD_0":27},"indices":24,"material":0,"mode":5}]},{"name":"Head750\u0000\u0000\u0000\u0000\u0000\u0000\u0000\u0000\u0000","primitives":[{"attributes":{"NORMAL":30,"POSITION":29,"TEXCOORD_0":31},"indices":28,"material":0,"mode":5},{"attributes":{"NORMAL":34,"POSITION":33,"TEXCOORD_0":35},"indices":32,"material":0,"mode":5},{"attributes":{"NORMAL":38,"POSITION":37,"TEXCOORD_0":39},"indices":36,"material":0,"mode":5}]}],"nodes":[{"name":"Root0","mesh":0},{"name":"Root1","mesh":1},{"name":"Root2","mesh":2},{"name":"Root3","mesh":3},{"name":"Root4","mesh":4},{"name":"Root5","mesh":5}],"scene":0,"scenes":[{"name":"Root Scene","nodes":[0]}],"textures":[{"source":0},{"source":1},{"source":2},{"source":3},{"source":4},{"source":5},{"source":6}]}