{"buffers":[{"uri":"data:application/octet-stream;base64,","byteLength":1012665}],"accessors":[{"bufferView":1,"componentType":5123,"count":594,"type":"SCALAR"},{"bufferView":2,"componentType":5126,"count":1163,"type":"VEC3","max":[77.270004,10.7412,51.0891],"min":[-77.270004,-23.357,-100.87]},{"bufferView":3,"componentType":5126,"count":1163,"type":"VEC3"},{"bufferView":4,"componentType":5126,"count":1163,"type":"VEC2"},{"bufferView":5,"componentType":5123,"count":2630,"type":"SCALAR"},{"bufferView":6,"componentType":5126,"count":1163,"type":"VEC3","max":[77.270004,10.7412,51.0891],"min":[-77.270004,-23.357,-100.87]},{"bufferView":7,"componentType":5126,"count":1163,"type":"VEC3"},{"bufferView":8,"componentType":5126,"count":1163,"type":"VEC2"},{"bufferView":10,"componentType":5123,"count":365,"type":"SCALAR"},{"bufferView":11,"componentType":5126,"count":710,"type":"VEC3","max":[76.865204,10.8377,51.088398],"min":[-76.8653,-23.2605,-100.877]},{"bufferView":12,"componentType":5126,"count":710,"type":"VEC3"},{"bufferView":13,"componentType":5126,"count":710,"type":"VEC2"},{"bufferView":14,"componentType":5123,"count":1573,"type":"SCALAR"},{"bufferView":15,"componentType":5126,"count":710,"type":"VEC3","max":[76.865204,10.8377,51.088398],"min":[-76.8653,-23.2605,-100.877]},{"bufferView":16,"componentType":5126,"count":710,"type":"VEC3"},{"bufferView":17,"componentType":5126,"count":710,"type":"VEC2"},{"bufferView":19,"componentType":5123,"count":177,"type":"SCALAR"},{"bufferView":20,"componentType":5126,"count":410,"type":"VEC3","max":[75.286896,10.8282,51.0825],"min":[-75.286896,-22.0534,-100.877]},{"bufferView":21,"componentType":5126,"count":410,"type":"VEC3"},{"bufferView":22,"componentType":5126,"count":410,"type":"VEC2"},{"bufferView":23,"componentType":5123,"count":927,"type":"SCALAR"},{"bufferView":24,"componentType":5126,"count":410,"type":"VEC3","max":[75.286896,10.8282,51.0825],"min":[-75.286896,-22.0534,-100.877]},{"bufferView":25,"componentType":5126,"count":410,"type":"VEC3"},{"bufferView":26,"componentType":5126,"count":410,"type":"VEC2"}],"asset":{"generator":"qmuntal/gltf","version":"2.0"},"bufferViews":[{"buffer":0,"byteLength":213501},{"buffer":0,"byteOffset":213504,"byteLength":1188,"target":34963},{"buffer":0,"byteOffset":214692,"byteLength":13956,"target":34962},{"buffer":0,"byteOffset":228648,"byteLength":13956,"target":34962},{"buffer":0,"byteOffset":242604,"byteLength":9304,"target":34962},{"buffer":0,"byteOffset":251908,"byteLength":5260,"target":34963},{"buffer":0,"byteOffset":257168,"byteLength":13956,"target":34962},{"buffer":0,"byteOffset":271124,"byteLength":13956,"target":34962},{"buffer":0,"byteOffset":285080,"byteLength":9304,"target":34962},{"buffer":0,"byteOffset":294384,"byteLength":213501},{"buffer":0,"byteOffset":507888,"byteLength":730,"target":34963},{"buffer":0,"byteOffset":508620,"byteLength":8520,"target":34962},{"buffer":0,"byteOffset":517140,"byteLength":8520,"target":34962},{"buffer":0,"byteOffset":525660,"byteLength":5680,"target":34962},{"buffer":0,"byteOffset":531340,"byteLength":3146,"target":34963},{"buffer":0,"byteOffset":534488,"byteLength":8520,"target":34962},{"buffer":0,"byteOffset":543008,"byteLength":8520,"target":34962},{"buffer":0,"byteOffset":551528,"byteLength":5680,"target":34962},{"buffer":0,"byteOffset":557208,"byteLength":213501},{"buffer":0,"byteOffset":770712,"byteLength":354,"target":34963},{"buffer":0,"byteOffset":771068,"byteLength":4920,"target":34962},{"buffer":0,"byteOffset":775988,"byteLength":4920,"target":34962},{"buffer":0,"byteOffset":780908,"byteLength":3280,"target":34962},{"buffer":0,"byteOffset":784188,"byteLength":1854,"target":34963},{"buffer":0,"byteOffset":786044,"byteLength":4920,"target":34962},{"buffer":0,"byteOffset":790964,"byteLength":4920,"target":34962},{"buffer":0,"byteOffset":795884,"byteLength":3280,"target":34962},{"buffer":0,"byteOffset":799164,"byteLength":213501}],"images":[{"name":"suit","mimeType":"image/png","bufferView":0},{"name":"suit","mimeType":"image/png","bufferView":9},{"name":"suit","mimeType":"image/png","bufferView":18},{"name":"suit","mimeType":"image/png","bufferView":27}],"materials":[{"name":"Material_SuS","pbrMetallicRoughness":{"baseColorTexture":{"index":0},"metallicFactor":0}},{"name":"Material_SuS","pbrMetallicRoughness":{"baseColorTexture":{"index":0},"metallicFactor":0}},{"name":"Material_SuS","pbrMetallicRoughness":{"baseColorTexture":{"index":0},"metallicFactor":0}},{"name":"Material_SuS","pbrMetallicRoughness":{"baseColorTexture":{"index":0},"metallicFactor":0}}],"meshes":[{"name":"Body3000\u0000\u0000\u0000\u0000\u0000\u0000\u0000\u0000","primitives":[{"attributes":{"NORMAL":2,"POSITION":1,"TEXCOORD_0":3},"indices":0,"material":0,"mode":5},{"attributes":{"NORMAL":6,"POSITION":5,"TEXCOORD_0":7},"indices":4,"material":0,"mode":5}]},{"name":"Body1500\u0000\u0000\u0000\u0000\u0000\u0000\u0000\u0000","primitives":[{"attributes":{"NORMAL":10,"POSITION":9,"TEXCOORD_0":11},"indices":8,"material":0,"mode":5},{"attributes":{"NORMAL":14,"POSITION":13,"TEXCOORD_0":15},"indices":12,"material":0,"mode":5}]},{"name":"Body750\u0000\u0000\u0000\u0000\u0000\u0000\u0000\u0000\u0000","primitives":[{"attributes":{"NORMAL":18,"POSITION":17,"TEXCOORD_0":19},"indices":16,"material":0,"mode":5},{"attributes":{"NORMAL":22,"POSITION":21,"TEXCOORD_0":23},"indices":20,"material":0,"mode":5}]}],"nodes":[{"name":"Root0","mesh":0},{"name":"Root1","mesh":1},{"name":"Root2","mesh":2}],"scene":0,"scenes":[{"name":"Root Scene","nodes":[0]}],"textures":[{"source":0},{"source":1},{"source":2},{"source":3}]}